<svg width="348" height="187" viewBox="0 0 348 187" fill="none" xmlns="http://www.w3.org/2000/svg">
<g clip-path="url(#clip0_108_329)">
<path d="M240.725 11.9053H30.9055C20.4121 11.9053 11.9055 20.4119 11.9055 30.9053V156.103C11.9055 166.597 20.4121 175.103 30.9055 175.103H240.725C251.218 175.103 259.725 166.597 259.725 156.103V30.9053C259.725 20.4119 251.218 11.9053 240.725 11.9053Z" stroke="#171717" stroke-width="23.811" stroke-linecap="round" stroke-linejoin="round"/>
<path d="M260.623 99.7037C260.533 105.565 263.153 111.14 267.724 114.811L304.382 144.248C316.817 154.234 335.279 145.382 335.279 129.434V65.6747C335.279 49.898 317.163 40.9943 304.672 50.6319L268.108 78.844C263.527 82.3788 260.806 87.8087 260.717 93.5945L260.623 99.7037Z" stroke="#171717" stroke-width="23.811" stroke-linecap="round" stroke-linejoin="round"/>
</g>
<defs>
<clipPath id="clip0_108_329">
<rect width="347.185" height="187.009" fill="white"/>
</clipPath>
</defs>
</svg>
