<svg width="81" height="58" viewBox="0 0 81 58" fill="none" xmlns="http://www.w3.org/2000/svg">
<path d="M12.3552 27.0829L16.9585 0H11.2628L0.41748 57.2196H19.2992V28.3687H13.3694C12.7452 28.3687 12.1991 27.8062 12.3552 27.0829Z" fill="white"/>
<path d="M34.3573 0H25.6187C23.0439 0 21.6394 1.44654 21.6394 4.09858V53.2014C21.6394 55.8534 23.0439 57.3 25.6187 57.3H34.3573C36.9321 57.3 38.3365 55.8534 38.3365 53.2014V4.09858C38.3365 1.44654 36.9321 0 34.3573 0ZM30.4561 34.2353C26.9451 34.2353 24.1362 31.3422 24.1362 27.7258C24.1362 24.1094 26.9451 21.2162 30.4561 21.2162C33.9672 21.2162 36.7761 24.1094 36.7761 27.7258C36.7761 31.3422 33.9672 34.2353 30.4561 34.2353Z" fill="white"/>
<path d="M53.3969 0H44.6582C42.0834 0 40.679 1.44654 40.679 4.09858V53.2014C40.679 55.8534 42.0834 57.3 44.6582 57.3H53.3969C55.9717 57.3 57.3761 55.8534 57.3761 53.2014V4.09858C57.2981 1.44654 55.8937 0 53.3969 0ZM49.0276 34.2353C45.5165 34.2353 42.7076 31.3422 42.7076 27.7258C42.7076 24.1094 45.5165 21.2162 49.0276 21.2162C52.5387 21.2162 55.3475 24.1094 55.3475 27.7258C55.3475 31.3422 52.5387 34.2353 49.0276 34.2353Z" fill="white"/>
<path d="M80.5468 3.37533C80.5468 1.52694 79.0644 0 77.2699 0H59.6365V57.2196H73.5247L65.1762 30.0563C64.9421 29.1723 65.3322 28.3687 66.0344 28.3687H77.4259C79.2204 28.3687 80.7029 26.8418 80.7029 24.9934L80.5468 3.37533ZM76.0215 17.5195C75.4753 18.966 74.305 20.0912 72.9785 20.6537C67.4388 23.0647 62.2112 17.5998 64.4739 11.894C65.0201 10.4474 66.1905 9.32227 67.5169 8.75972C73.0566 6.42914 78.2842 11.8136 76.0215 17.5195Z" fill="white"/>
</svg>
