<svg width="61" height="61" viewBox="0 0 61 61" fill="none" xmlns="http://www.w3.org/2000/svg">
<g clip-path="url(#clip0_79_94)">
<path d="M30.5002 0.5C47.0693 0.5 60.5004 13.9311 60.5004 30.5002C60.5004 47.0693 47.0693 60.5004 30.5002 60.5004C13.9311 60.5004 0.5 47.0693 0.5 30.5002C0.5 13.9311 13.9311 0.5 30.5002 0.5ZM31.5684 18.5383C30.0294 18.5383 26.6286 17.9453 25.2336 18.3743C26.3403 18.873 28.157 17.4186 28.9054 18.3743C29.6537 19.3301 30.1589 20.4532 30.3775 21.6472C30.5962 22.8412 30.5217 24.0704 30.1606 25.2293C29.7995 26.3882 29.1625 27.4422 28.3043 28.3006C27.4461 29.1591 26.3923 29.7964 25.2336 30.1579C24.0748 30.5194 22.8455 30.5942 21.6515 30.3759C20.4574 30.1576 19.3341 29.6527 18.3782 28.9047C17.4222 28.1566 16.6621 27.1877 16.1631 26.0812C15.2328 29.0989 15.2786 32.3333 16.294 35.3235C17.3095 38.3137 19.2427 40.9072 21.8183 42.7343C24.3939 44.5615 27.4805 45.5293 30.6383 45.4996C33.796 45.47 36.8639 44.4445 39.4048 42.5693C41.9456 40.6941 43.8298 38.0648 44.789 35.0561C45.7481 32.0474 45.7332 28.8127 44.7464 25.8129C43.7596 22.8131 43.3705 21.3894 40.8125 19.5377C38.2545 17.6859 34.7263 18.5389 31.5684 18.5383Z" fill="#4265E9"/>
<circle cx="18.9944" cy="21.8069" r="8.18187" fill="#CAF472"/>
<circle cx="30.4497" cy="33.2607" r="16.3637" fill="#CAF472"/>
<circle cx="41.9123" cy="21.8069" r="8.18187" fill="#CAF472"/>
<path d="M22.6514 25.8349C22.6738 25.7732 22.7146 25.72 22.7683 25.6823C22.822 25.6447 22.8859 25.6245 22.9515 25.6245C23.0171 25.6245 23.0811 25.6447 23.1348 25.6823C23.1885 25.72 23.2293 25.7732 23.2517 25.8349L23.5569 26.6689C23.796 27.3228 24.1749 27.9167 24.6673 28.4091C25.1597 28.9014 25.7536 29.2804 26.4075 29.5195L27.2409 29.8247C27.3025 29.8471 27.3558 29.8879 27.3934 29.9416C27.431 29.9953 27.4512 30.0593 27.4512 30.1249C27.4512 30.1904 27.431 30.2544 27.3934 30.3081C27.3558 30.3618 27.3025 30.4026 27.2409 30.425L26.4075 30.7302C25.7536 30.9693 25.1597 31.3483 24.6673 31.8406C24.1749 32.333 23.796 32.9269 23.5569 33.5809L23.2517 34.4142C23.2293 34.4758 23.1885 34.5291 23.1348 34.5667C23.0811 34.6044 23.0171 34.6246 22.9515 34.6246C22.8859 34.6246 22.822 34.6044 22.7683 34.5667C22.7146 34.5291 22.6738 34.4758 22.6514 34.4142L22.3461 33.5809C22.1071 32.9269 21.7281 32.333 21.2357 31.8406C20.7434 31.3483 20.1495 30.9693 19.4955 30.7302L18.6615 30.425C18.5999 30.4026 18.5466 30.3618 18.509 30.3081C18.4714 30.2544 18.4512 30.1904 18.4512 30.1249C18.4512 30.0593 18.4714 29.9953 18.509 29.9416C18.5466 29.8879 18.5999 29.8471 18.6615 29.8247L19.4955 29.5195C20.1495 29.2804 20.7434 28.9014 21.2357 28.4091C21.7281 27.9167 22.1071 27.3228 22.3461 26.6689L22.6514 25.8349Z" fill="#4265E9"/>
<path d="M37.6436 25.8349C37.6659 25.7732 37.7068 25.72 37.7605 25.6823C37.8141 25.6447 37.8781 25.6245 37.9437 25.6245C38.0093 25.6245 38.0733 25.6447 38.127 25.6823C38.1807 25.72 38.2215 25.7732 38.2438 25.8349L38.5491 26.6689C38.7882 27.3228 39.1671 27.9167 39.6595 28.4091C40.1518 28.9014 40.7457 29.2804 41.3997 29.5195L42.2331 29.8247C42.2947 29.8471 42.348 29.8879 42.3856 29.9416C42.4232 29.9953 42.4434 30.0593 42.4434 30.1249C42.4434 30.1904 42.4232 30.2544 42.3856 30.3081C42.348 30.3618 42.2947 30.4026 42.2331 30.425L41.3997 30.7302C40.7457 30.9693 40.1518 31.3483 39.6595 31.8406C39.1671 32.333 38.7882 32.9269 38.5491 33.5809L38.2438 34.4142C38.2215 34.4758 38.1807 34.5291 38.127 34.5667C38.0733 34.6044 38.0093 34.6246 37.9437 34.6246C37.8781 34.6246 37.8141 34.6044 37.7605 34.5667C37.7068 34.5291 37.6659 34.4758 37.6436 34.4142L37.3383 33.5809C37.0992 32.9269 36.7203 32.333 36.2279 31.8406C35.7356 31.3483 35.1417 30.9693 34.4877 30.7302L33.6537 30.425C33.5921 30.4026 33.5388 30.3618 33.5012 30.3081C33.4635 30.2544 33.4434 30.1904 33.4434 30.1249C33.4434 30.0593 33.4635 29.9953 33.5012 29.9416C33.5388 29.8879 33.5921 29.8471 33.6537 29.8247L34.4877 29.5195C35.1417 29.2804 35.7356 28.9014 36.2279 28.4091C36.7203 27.9167 37.0992 27.3228 37.3383 26.6689L37.6436 25.8349Z" fill="#4265E9"/>
</g>
<defs>
<clipPath id="clip0_79_94">
<rect width="60" height="60" fill="white" transform="translate(0.5 0.5)"/>
</clipPath>
</defs>
</svg>
